<svg xmlns="http://www.w3.org/2000/svg" viewBox="0 0 720 552" width="720" height="552" role="img" aria-labelledby="t d" font-family="'Outfit', 'Inter', system-ui, -apple-system, 'Segoe UI', sans-serif" font-size="12">
<title id="t">Growing elevation by origin</title><desc id="d">Mean stated elevation in metres above sea level, origins with 20+ listings</desc>
<rect width="720" height="552" fill="#181715"/>
<text x="20" y="26" font-size="15" font-weight="600" fill="#f8f7f4">Growing elevation by origin</text>
<text x="20" y="44" font-size="12" fill="#9c9891">Mean stated elevation in metres above sea level, origins with 20+ listings</text>
<line x1="208" y1="56" x2="208" y2="512" stroke="#2c2a27" stroke-width="1"/>
<g><title>Ethiopia: 1,842 m</title><rect x="0" y="62" width="720" height="30" fill="transparent"/><path d="M208 68.0 h408.0 a4 4 0 0 1 4 4 v10 a4 4 0 0 1 -4 4 h-408.0 z" fill="#d94e34"/><text x="198" y="81.0" text-anchor="end" fill="#f8f7f4">Ethiopia</text><text x="628.0" y="81.0" fill="#9c9891" font-family="'JetBrains Mono', ui-monospace, Menlo, Consolas, monospace" font-size="11">1,842 m</text></g>
<g><title>Peru: 1,601 m</title><rect x="0" y="92" width="720" height="30" fill="transparent"/><path d="M208 98.0 h354.1 a4 4 0 0 1 4 4 v10 a4 4 0 0 1 -4 4 h-354.1 z" fill="#d94e34"/><text x="198" y="111.0" text-anchor="end" fill="#f8f7f4">Peru</text><text x="574.1" y="111.0" fill="#9c9891" font-family="'JetBrains Mono', ui-monospace, Menlo, Consolas, monospace" font-size="11">1,601 m</text></g>
<g><title>Rwanda: 1,555 m</title><rect x="0" y="122" width="720" height="30" fill="transparent"/><path d="M208 128.0 h343.8 a4 4 0 0 1 4 4 v10 a4 4 0 0 1 -4 4 h-343.8 z" fill="#d94e34"/><text x="198" y="141.0" text-anchor="end" fill="#f8f7f4">Rwanda</text><text x="563.8" y="141.0" fill="#9c9891" font-family="'JetBrains Mono', ui-monospace, Menlo, Consolas, monospace" font-size="11">1,555 m</text></g>
<g><title>Colombia: 1,507 m</title><rect x="0" y="152" width="720" height="30" fill="transparent"/><path d="M208 158.0 h333.1 a4 4 0 0 1 4 4 v10 a4 4 0 0 1 -4 4 h-333.1 z" fill="#d94e34"/><text x="198" y="171.0" text-anchor="end" fill="#f8f7f4">Colombia</text><text x="553.1" y="171.0" fill="#9c9891" font-family="'JetBrains Mono', ui-monospace, Menlo, Consolas, monospace" font-size="11">1,507 m</text></g>
<g><title>Kenya: 1,396 m</title><rect x="0" y="182" width="720" height="30" fill="transparent"/><path d="M208 188.0 h308.2 a4 4 0 0 1 4 4 v10 a4 4 0 0 1 -4 4 h-308.2 z" fill="#d94e34"/><text x="198" y="201.0" text-anchor="end" fill="#f8f7f4">Kenya</text><text x="528.2" y="201.0" fill="#9c9891" font-family="'JetBrains Mono', ui-monospace, Menlo, Consolas, monospace" font-size="11">1,396 m</text></g>
<g><title>Costa Rica: 1,374 m</title><rect x="0" y="212" width="720" height="30" fill="transparent"/><path d="M208 218.0 h303.3 a4 4 0 0 1 4 4 v10 a4 4 0 0 1 -4 4 h-303.3 z" fill="#d94e34"/><text x="198" y="231.0" text-anchor="end" fill="#f8f7f4">Costa Rica</text><text x="523.3" y="231.0" fill="#9c9891" font-family="'JetBrains Mono', ui-monospace, Menlo, Consolas, monospace" font-size="11">1,374 m</text></g>
<g><title>Honduras: 1,349 m</title><rect x="0" y="242" width="720" height="30" fill="transparent"/><path d="M208 248.0 h297.7 a4 4 0 0 1 4 4 v10 a4 4 0 0 1 -4 4 h-297.7 z" fill="#d94e34"/><text x="198" y="261.0" text-anchor="end" fill="#f8f7f4">Honduras</text><text x="517.7" y="261.0" fill="#9c9891" font-family="'JetBrains Mono', ui-monospace, Menlo, Consolas, monospace" font-size="11">1,349 m</text></g>
<g><title>Ecuador: 1,318 m</title><rect x="0" y="272" width="720" height="30" fill="transparent"/><path d="M208 278.0 h290.8 a4 4 0 0 1 4 4 v10 a4 4 0 0 1 -4 4 h-290.8 z" fill="#d94e34"/><text x="198" y="291.0" text-anchor="end" fill="#f8f7f4">Ecuador</text><text x="510.8" y="291.0" fill="#9c9891" font-family="'JetBrains Mono', ui-monospace, Menlo, Consolas, monospace" font-size="11">1,318 m</text></g>
<g><title>Guatemala: 1,317 m</title><rect x="0" y="302" width="720" height="30" fill="transparent"/><path d="M208 308.0 h290.6 a4 4 0 0 1 4 4 v10 a4 4 0 0 1 -4 4 h-290.6 z" fill="#d94e34"/><text x="198" y="321.0" text-anchor="end" fill="#f8f7f4">Guatemala</text><text x="510.6" y="321.0" fill="#9c9891" font-family="'JetBrains Mono', ui-monospace, Menlo, Consolas, monospace" font-size="11">1,317 m</text></g>
<g><title>Burundi: 1,279 m</title><rect x="0" y="332" width="720" height="30" fill="transparent"/><path d="M208 338.0 h282.1 a4 4 0 0 1 4 4 v10 a4 4 0 0 1 -4 4 h-282.1 z" fill="#d94e34"/><text x="198" y="351.0" text-anchor="end" fill="#f8f7f4">Burundi</text><text x="502.1" y="351.0" fill="#9c9891" font-family="'JetBrains Mono', ui-monospace, Menlo, Consolas, monospace" font-size="11">1,279 m</text></g>
<g><title>El Salvador: 1,165 m</title><rect x="0" y="362" width="720" height="30" fill="transparent"/><path d="M208 368.0 h256.6 a4 4 0 0 1 4 4 v10 a4 4 0 0 1 -4 4 h-256.6 z" fill="#d94e34"/><text x="198" y="381.0" text-anchor="end" fill="#f8f7f4">El Salvador</text><text x="476.6" y="381.0" fill="#9c9891" font-family="'JetBrains Mono', ui-monospace, Menlo, Consolas, monospace" font-size="11">1,165 m</text></g>
<g><title>Mexico: 1,164 m</title><rect x="0" y="392" width="720" height="30" fill="transparent"/><path d="M208 398.0 h256.4 a4 4 0 0 1 4 4 v10 a4 4 0 0 1 -4 4 h-256.4 z" fill="#d94e34"/><text x="198" y="411.0" text-anchor="end" fill="#f8f7f4">Mexico</text><text x="476.4" y="411.0" fill="#9c9891" font-family="'JetBrains Mono', ui-monospace, Menlo, Consolas, monospace" font-size="11">1,164 m</text></g>
<g><title>Panama: 1,162 m</title><rect x="0" y="422" width="720" height="30" fill="transparent"/><path d="M208 428.0 h255.9 a4 4 0 0 1 4 4 v10 a4 4 0 0 1 -4 4 h-255.9 z" fill="#d94e34"/><text x="198" y="441.0" text-anchor="end" fill="#f8f7f4">Panama</text><text x="475.9" y="441.0" fill="#9c9891" font-family="'JetBrains Mono', ui-monospace, Menlo, Consolas, monospace" font-size="11">1,162 m</text></g>
<g><title>Brazil: 1,140 m</title><rect x="0" y="452" width="720" height="30" fill="transparent"/><path d="M208 458.0 h251.0 a4 4 0 0 1 4 4 v10 a4 4 0 0 1 -4 4 h-251.0 z" fill="#d94e34"/><text x="198" y="471.0" text-anchor="end" fill="#f8f7f4">Brazil</text><text x="471.0" y="471.0" fill="#9c9891" font-family="'JetBrains Mono', ui-monospace, Menlo, Consolas, monospace" font-size="11">1,140 m</text></g>
<g><title>Bolivia: 1,123 m</title><rect x="0" y="482" width="720" height="30" fill="transparent"/><path d="M208 488.0 h247.2 a4 4 0 0 1 4 4 v10 a4 4 0 0 1 -4 4 h-247.2 z" fill="#d94e34"/><text x="198" y="501.0" text-anchor="end" fill="#f8f7f4">Bolivia</text><text x="467.2" y="501.0" fill="#9c9891" font-family="'JetBrains Mono', ui-monospace, Menlo, Consolas, monospace" font-size="11">1,123 m</text></g>
<text x="20" y="540" font-size="11" fill="#9c9891">Source: RoasterDB, roasterdb.dataengineered.io/stats · snapshot 2026-09-14 · CC BY 4.0</text>
</svg>
