<svg xmlns="http://www.w3.org/2000/svg" viewBox="0 0 720 522" width="720" height="522" role="img" aria-labelledby="t-price-by-origin d-price-by-origin" font-family="'Outfit', 'Inter', system-ui, -apple-system, 'Segoe UI', sans-serif" font-size="12">
<title id="t-price-by-origin">Median price of a 250 g bag, by origin (USD)</title><desc id="d-price-by-origin">Listings priced in USD, 100-2,000 g units, origins with 50+ priced listings</desc>
<rect width="720" height="522" fill="#181715"/>
<text x="20" y="26" font-size="15" font-weight="600" fill="#f8f7f4">Median price of a 250 g bag, by origin (USD)</text>
<text x="20" y="44" font-size="12" fill="#9c9891">Listings priced in USD, 100-2,000 g units, origins with 50+ priced listings</text>
<line x1="208" y1="56" x2="208" y2="482" stroke="#2c2a27" stroke-width="1"/>
<g><title>Panama: $60.29</title><rect x="0" y="62" width="720" height="30" fill="transparent"/><path d="M208 68.0 h408.0 a4 4 0 0 1 4 4 v10 a4 4 0 0 1 -4 4 h-408.0 z" fill="#d94e34"/><text x="198" y="81.0" text-anchor="end" fill="#f8f7f4">Panama</text><text x="628.0" y="81.0" fill="#9c9891" font-family="'JetBrains Mono', ui-monospace, Menlo, Consolas, monospace" font-size="11">$60.29</text></g>
<g><title>Ecuador: $23.98</title><rect x="0" y="92" width="720" height="30" fill="transparent"/><path d="M208 98.0 h159.9 a4 4 0 0 1 4 4 v10 a4 4 0 0 1 -4 4 h-159.9 z" fill="#d94e34"/><text x="198" y="111.0" text-anchor="end" fill="#f8f7f4">Ecuador</text><text x="379.9" y="111.0" fill="#9c9891" font-family="'JetBrains Mono', ui-monospace, Menlo, Consolas, monospace" font-size="11">$23.98</text></g>
<g><title>Colombia: $19.06</title><rect x="0" y="122" width="720" height="30" fill="transparent"/><path d="M208 128.0 h126.2 a4 4 0 0 1 4 4 v10 a4 4 0 0 1 -4 4 h-126.2 z" fill="#d94e34"/><text x="198" y="141.0" text-anchor="end" fill="#f8f7f4">Colombia</text><text x="346.2" y="141.0" fill="#9c9891" font-family="'JetBrains Mono', ui-monospace, Menlo, Consolas, monospace" font-size="11">$19.06</text></g>
<g><title>Kenya: $19.06</title><rect x="0" y="152" width="720" height="30" fill="transparent"/><path d="M208 158.0 h126.2 a4 4 0 0 1 4 4 v10 a4 4 0 0 1 -4 4 h-126.2 z" fill="#d94e34"/><text x="198" y="171.0" text-anchor="end" fill="#f8f7f4">Kenya</text><text x="346.2" y="171.0" fill="#9c9891" font-family="'JetBrains Mono', ui-monospace, Menlo, Consolas, monospace" font-size="11">$19.06</text></g>
<g><title>Costa Rica: $18.75</title><rect x="0" y="182" width="720" height="30" fill="transparent"/><path d="M208 188.0 h124.1 a4 4 0 0 1 4 4 v10 a4 4 0 0 1 -4 4 h-124.1 z" fill="#d94e34"/><text x="198" y="201.0" text-anchor="end" fill="#f8f7f4">Costa Rica</text><text x="344.1" y="201.0" fill="#9c9891" font-family="'JetBrains Mono', ui-monospace, Menlo, Consolas, monospace" font-size="11">$18.75</text></g>
<g><title>Honduras: $18.47</title><rect x="0" y="212" width="720" height="30" fill="transparent"/><path d="M208 218.0 h122.2 a4 4 0 0 1 4 4 v10 a4 4 0 0 1 -4 4 h-122.2 z" fill="#d94e34"/><text x="198" y="231.0" text-anchor="end" fill="#f8f7f4">Honduras</text><text x="342.2" y="231.0" fill="#9c9891" font-family="'JetBrains Mono', ui-monospace, Menlo, Consolas, monospace" font-size="11">$18.47</text></g>
<g><title>Burundi: $18.43</title><rect x="0" y="242" width="720" height="30" fill="transparent"/><path d="M208 248.0 h121.9 a4 4 0 0 1 4 4 v10 a4 4 0 0 1 -4 4 h-121.9 z" fill="#d94e34"/><text x="198" y="261.0" text-anchor="end" fill="#f8f7f4">Burundi</text><text x="341.9" y="261.0" fill="#9c9891" font-family="'JetBrains Mono', ui-monospace, Menlo, Consolas, monospace" font-size="11">$18.43</text></g>
<g><title>Peru: $18.39</title><rect x="0" y="272" width="720" height="30" fill="transparent"/><path d="M208 278.0 h121.7 a4 4 0 0 1 4 4 v10 a4 4 0 0 1 -4 4 h-121.7 z" fill="#d94e34"/><text x="198" y="291.0" text-anchor="end" fill="#f8f7f4">Peru</text><text x="341.7" y="291.0" fill="#9c9891" font-family="'JetBrains Mono', ui-monospace, Menlo, Consolas, monospace" font-size="11">$18.39</text></g>
<g><title>Ethiopia: $18.18</title><rect x="0" y="302" width="720" height="30" fill="transparent"/><path d="M208 308.0 h120.2 a4 4 0 0 1 4 4 v10 a4 4 0 0 1 -4 4 h-120.2 z" fill="#d94e34"/><text x="198" y="321.0" text-anchor="end" fill="#f8f7f4">Ethiopia</text><text x="340.2" y="321.0" fill="#9c9891" font-family="'JetBrains Mono', ui-monospace, Menlo, Consolas, monospace" font-size="11">$18.18</text></g>
<g><title>El Salvador: $17.72</title><rect x="0" y="332" width="720" height="30" fill="transparent"/><path d="M208 338.0 h117.1 a4 4 0 0 1 4 4 v10 a4 4 0 0 1 -4 4 h-117.1 z" fill="#d94e34"/><text x="198" y="351.0" text-anchor="end" fill="#f8f7f4">El Salvador</text><text x="337.1" y="351.0" fill="#9c9891" font-family="'JetBrains Mono', ui-monospace, Menlo, Consolas, monospace" font-size="11">$17.72</text></g>
<g><title>Rwanda: $17.71</title><rect x="0" y="362" width="720" height="30" fill="transparent"/><path d="M208 368.0 h117.0 a4 4 0 0 1 4 4 v10 a4 4 0 0 1 -4 4 h-117.0 z" fill="#d94e34"/><text x="198" y="381.0" text-anchor="end" fill="#f8f7f4">Rwanda</text><text x="337.0" y="381.0" fill="#9c9891" font-family="'JetBrains Mono', ui-monospace, Menlo, Consolas, monospace" font-size="11">$17.71</text></g>
<g><title>Mexico: $17.65</title><rect x="0" y="392" width="720" height="30" fill="transparent"/><path d="M208 398.0 h116.6 a4 4 0 0 1 4 4 v10 a4 4 0 0 1 -4 4 h-116.6 z" fill="#d94e34"/><text x="198" y="411.0" text-anchor="end" fill="#f8f7f4">Mexico</text><text x="336.6" y="411.0" fill="#9c9891" font-family="'JetBrains Mono', ui-monospace, Menlo, Consolas, monospace" font-size="11">$17.65</text></g>
<g><title>Guatemala: $16.91</title><rect x="0" y="422" width="720" height="30" fill="transparent"/><path d="M208 428.0 h111.6 a4 4 0 0 1 4 4 v10 a4 4 0 0 1 -4 4 h-111.6 z" fill="#d94e34"/><text x="198" y="441.0" text-anchor="end" fill="#f8f7f4">Guatemala</text><text x="331.6" y="441.0" fill="#9c9891" font-family="'JetBrains Mono', ui-monospace, Menlo, Consolas, monospace" font-size="11">$16.91</text></g>
<g><title>Brazil: $15.86</title><rect x="0" y="452" width="720" height="30" fill="transparent"/><path d="M208 458.0 h104.4 a4 4 0 0 1 4 4 v10 a4 4 0 0 1 -4 4 h-104.4 z" fill="#d94e34"/><text x="198" y="471.0" text-anchor="end" fill="#f8f7f4">Brazil</text><text x="324.4" y="471.0" fill="#9c9891" font-family="'JetBrains Mono', ui-monospace, Menlo, Consolas, monospace" font-size="11">$15.86</text></g>
<text x="20" y="510" font-size="11" fill="#9c9891">Source: RoasterDB, roasterdb.dataengineered.io/stats · snapshot 2026-10-04 · CC BY 4.0</text>
</svg>
