<svg xmlns="http://www.w3.org/2000/svg" viewBox="0 0 720 252" width="720" height="252" role="img" aria-labelledby="t-roast d-roast" font-family="'Outfit', 'Inter', system-ui, -apple-system, 'Segoe UI', sans-serif" font-size="12">
<title id="t-roast">Roast levels in specialty coffee</title><desc id="d-roast">Share of 4,369 listings that state a roast level</desc>
<rect width="720" height="252" fill="#181715"/>
<text x="20" y="26" font-size="15" font-weight="600" fill="#f8f7f4">Roast levels in specialty coffee</text>
<text x="20" y="44" font-size="12" fill="#9c9891">Share of 4,369 listings that state a roast level</text>
<line x1="208" y1="56" x2="208" y2="212" stroke="#2c2a27" stroke-width="1"/>
<g><title>Light: 52.3%</title><rect x="0" y="62" width="720" height="30" fill="transparent"/><path d="M208 68.0 h408.0 a4 4 0 0 1 4 4 v10 a4 4 0 0 1 -4 4 h-408.0 z" fill="#d94e34"/><text x="198" y="81.0" text-anchor="end" fill="#f8f7f4">Light</text><text x="628.0" y="81.0" fill="#9c9891" font-family="'JetBrains Mono', ui-monospace, Menlo, Consolas, monospace" font-size="11">52.3%</text></g>
<g><title>Dark: 25.9%</title><rect x="0" y="92" width="720" height="30" fill="transparent"/><path d="M208 98.0 h200.0 a4 4 0 0 1 4 4 v10 a4 4 0 0 1 -4 4 h-200.0 z" fill="#d94e34"/><text x="198" y="111.0" text-anchor="end" fill="#f8f7f4">Dark</text><text x="420.0" y="111.0" fill="#9c9891" font-family="'JetBrains Mono', ui-monospace, Menlo, Consolas, monospace" font-size="11">25.9%</text></g>
<g><title>Medium: 17.0%</title><rect x="0" y="122" width="720" height="30" fill="transparent"/><path d="M208 128.0 h129.7 a4 4 0 0 1 4 4 v10 a4 4 0 0 1 -4 4 h-129.7 z" fill="#d94e34"/><text x="198" y="141.0" text-anchor="end" fill="#f8f7f4">Medium</text><text x="349.7" y="141.0" fill="#9c9891" font-family="'JetBrains Mono', ui-monospace, Menlo, Consolas, monospace" font-size="11">17.0%</text></g>
<g><title>Medium-Dark: 2.6%</title><rect x="0" y="152" width="720" height="30" fill="transparent"/><path d="M208 158.0 h16.7 a4 4 0 0 1 4 4 v10 a4 4 0 0 1 -4 4 h-16.7 z" fill="#d94e34"/><text x="198" y="171.0" text-anchor="end" fill="#f8f7f4">Medium-Dark</text><text x="236.7" y="171.0" fill="#9c9891" font-family="'JetBrains Mono', ui-monospace, Menlo, Consolas, monospace" font-size="11">2.6%</text></g>
<g><title>Light-Medium: 2.2%</title><rect x="0" y="182" width="720" height="30" fill="transparent"/><path d="M208 188.0 h12.9 a4 4 0 0 1 4 4 v10 a4 4 0 0 1 -4 4 h-12.9 z" fill="#d94e34"/><text x="198" y="201.0" text-anchor="end" fill="#f8f7f4">Light-Medium</text><text x="232.9" y="201.0" fill="#9c9891" font-family="'JetBrains Mono', ui-monospace, Menlo, Consolas, monospace" font-size="11">2.2%</text></g>
<text x="20" y="240" font-size="11" fill="#9c9891">Source: RoasterDB, roasterdb.dataengineered.io/stats · snapshot 2026-10-04 · CC BY 4.0</text>
</svg>
