<svg xmlns="http://www.w3.org/2000/svg" viewBox="0 0 720 462" width="720" height="462" role="img" aria-labelledby="t d" font-family="'Outfit', 'Inter', system-ui, -apple-system, 'Segoe UI', sans-serif" font-size="12">
<title id="t">The most listed varietals</title><desc id="d">Share of 3,188 listings that name a varietal</desc>
<rect width="720" height="462" fill="#181715"/>
<text x="20" y="26" font-size="15" font-weight="600" fill="#f8f7f4">The most listed varietals</text>
<text x="20" y="44" font-size="12" fill="#9c9891">Share of 3,188 listings that name a varietal</text>
<line x1="208" y1="56" x2="208" y2="422" stroke="#2c2a27" stroke-width="1"/>
<g><title>Bourbon: 35.9%</title><rect x="0" y="62" width="720" height="30" fill="transparent"/><path d="M208 68.0 h408.0 a4 4 0 0 1 4 4 v10 a4 4 0 0 1 -4 4 h-408.0 z" fill="#d94e34"/><text x="198" y="81.0" text-anchor="end" fill="#f8f7f4">Bourbon</text><text x="628.0" y="81.0" fill="#9c9891" font-family="'JetBrains Mono', ui-monospace, Menlo, Consolas, monospace" font-size="11">35.9%</text></g>
<g><title>Caturra: 23.9%</title><rect x="0" y="92" width="720" height="30" fill="transparent"/><path d="M208 98.0 h270.3 a4 4 0 0 1 4 4 v10 a4 4 0 0 1 -4 4 h-270.3 z" fill="#d94e34"/><text x="198" y="111.0" text-anchor="end" fill="#f8f7f4">Caturra</text><text x="490.3" y="111.0" fill="#9c9891" font-family="'JetBrains Mono', ui-monospace, Menlo, Consolas, monospace" font-size="11">23.9%</text></g>
<g><title>Gesha (Geisha): 22.3%</title><rect x="0" y="122" width="720" height="30" fill="transparent"/><path d="M208 128.0 h251.3 a4 4 0 0 1 4 4 v10 a4 4 0 0 1 -4 4 h-251.3 z" fill="#d94e34"/><text x="198" y="141.0" text-anchor="end" fill="#f8f7f4">Gesha (Geisha)</text><text x="471.3" y="141.0" fill="#9c9891" font-family="'JetBrains Mono', ui-monospace, Menlo, Consolas, monospace" font-size="11">22.3%</text></g>
<g><title>Catuai: 10.8%</title><rect x="0" y="152" width="720" height="30" fill="transparent"/><path d="M208 158.0 h120.0 a4 4 0 0 1 4 4 v10 a4 4 0 0 1 -4 4 h-120.0 z" fill="#d94e34"/><text x="198" y="171.0" text-anchor="end" fill="#f8f7f4">Catuai</text><text x="340.0" y="171.0" fill="#9c9891" font-family="'JetBrains Mono', ui-monospace, Menlo, Consolas, monospace" font-size="11">10.8%</text></g>
<g><title>Typica: 9.8%</title><rect x="0" y="182" width="720" height="30" fill="transparent"/><path d="M208 188.0 h107.8 a4 4 0 0 1 4 4 v10 a4 4 0 0 1 -4 4 h-107.8 z" fill="#d94e34"/><text x="198" y="201.0" text-anchor="end" fill="#f8f7f4">Typica</text><text x="327.8" y="201.0" fill="#9c9891" font-family="'JetBrains Mono', ui-monospace, Menlo, Consolas, monospace" font-size="11">9.8%</text></g>
<g><title>Heirloom: 9.4%</title><rect x="0" y="212" width="720" height="30" fill="transparent"/><path d="M208 218.0 h104.2 a4 4 0 0 1 4 4 v10 a4 4 0 0 1 -4 4 h-104.2 z" fill="#d94e34"/><text x="198" y="231.0" text-anchor="end" fill="#f8f7f4">Heirloom</text><text x="324.2" y="231.0" fill="#9c9891" font-family="'JetBrains Mono', ui-monospace, Menlo, Consolas, monospace" font-size="11">9.4%</text></g>
<g><title>Pink Bourbon: 8.8%</title><rect x="0" y="242" width="720" height="30" fill="transparent"/><path d="M208 248.0 h96.7 a4 4 0 0 1 4 4 v10 a4 4 0 0 1 -4 4 h-96.7 z" fill="#d94e34"/><text x="198" y="261.0" text-anchor="end" fill="#f8f7f4">Pink Bourbon</text><text x="316.7" y="261.0" fill="#9c9891" font-family="'JetBrains Mono', ui-monospace, Menlo, Consolas, monospace" font-size="11">8.8%</text></g>
<g><title>Castillo: 8.7%</title><rect x="0" y="272" width="720" height="30" fill="transparent"/><path d="M208 278.0 h95.2 a4 4 0 0 1 4 4 v10 a4 4 0 0 1 -4 4 h-95.2 z" fill="#d94e34"/><text x="198" y="291.0" text-anchor="end" fill="#f8f7f4">Castillo</text><text x="315.2" y="291.0" fill="#9c9891" font-family="'JetBrains Mono', ui-monospace, Menlo, Consolas, monospace" font-size="11">8.7%</text></g>
<g><title>SL28: 8.1%</title><rect x="0" y="302" width="720" height="30" fill="transparent"/><path d="M208 308.0 h88.4 a4 4 0 0 1 4 4 v10 a4 4 0 0 1 -4 4 h-88.4 z" fill="#d94e34"/><text x="198" y="321.0" text-anchor="end" fill="#f8f7f4">SL28</text><text x="308.4" y="321.0" fill="#9c9891" font-family="'JetBrains Mono', ui-monospace, Menlo, Consolas, monospace" font-size="11">8.1%</text></g>
<g><title>Pacamara: 5.1%</title><rect x="0" y="332" width="720" height="30" fill="transparent"/><path d="M208 338.0 h53.9 a4 4 0 0 1 4 4 v10 a4 4 0 0 1 -4 4 h-53.9 z" fill="#d94e34"/><text x="198" y="351.0" text-anchor="end" fill="#f8f7f4">Pacamara</text><text x="273.9" y="351.0" fill="#9c9891" font-family="'JetBrains Mono', ui-monospace, Menlo, Consolas, monospace" font-size="11">5.1%</text></g>
<g><title>SL34: 3.8%</title><rect x="0" y="362" width="720" height="30" fill="transparent"/><path d="M208 368.0 h39.1 a4 4 0 0 1 4 4 v10 a4 4 0 0 1 -4 4 h-39.1 z" fill="#d94e34"/><text x="198" y="381.0" text-anchor="end" fill="#f8f7f4">SL34</text><text x="259.1" y="381.0" fill="#9c9891" font-family="'JetBrains Mono', ui-monospace, Menlo, Consolas, monospace" font-size="11">3.8%</text></g>
<g><title>Sidra: 3.4%</title><rect x="0" y="392" width="720" height="30" fill="transparent"/><path d="M208 398.0 h35.2 a4 4 0 0 1 4 4 v10 a4 4 0 0 1 -4 4 h-35.2 z" fill="#d94e34"/><text x="198" y="411.0" text-anchor="end" fill="#f8f7f4">Sidra</text><text x="255.2" y="411.0" fill="#9c9891" font-family="'JetBrains Mono', ui-monospace, Menlo, Consolas, monospace" font-size="11">3.4%</text></g>
<text x="20" y="450" font-size="11" fill="#9c9891">Source: RoasterDB, roasterdb.dataengineered.io/stats · snapshot 2026-09-14 · CC BY 4.0</text>
</svg>
